<svg width="968" height="160" viewBox="0 0 968 160" fill="none" xmlns="http://www.w3.org/2000/svg">
<path d="M922.981 104.576C920.293 104.576 917.946 104.149 915.941 103.296C913.936 102.443 912.357 101.269 911.205 99.7761C910.096 98.2401 909.498 96.4481 909.413 94.4001H917.413C917.498 95.5095 918.032 96.4055 919.013 97.0881C920.037 97.7708 921.36 98.1121 922.981 98.1121H925.797C927.76 98.1121 929.232 97.7281 930.213 96.9601C931.194 96.1921 931.685 95.1468 931.685 93.8241C931.685 92.5868 931.237 91.6268 930.341 90.9441C929.488 90.2188 928.144 89.7495 926.309 89.5361L921.957 88.8961C917.946 88.3415 915.002 87.2748 913.125 85.6961C911.248 84.1175 910.309 81.7495 910.309 78.5921C910.309 75.3068 911.418 72.7681 913.637 70.9761C915.856 69.1415 919.12 68.2241 923.429 68.2241H925.861C929.786 68.2241 932.922 69.0988 935.269 70.8481C937.616 72.5975 938.874 74.9441 939.045 77.8881H931.045C930.917 76.9495 930.384 76.1815 929.445 75.5841C928.549 74.9868 927.354 74.6881 925.861 74.6881H923.429C921.594 74.6881 920.25 75.0295 919.397 75.7121C918.586 76.3521 918.181 77.3121 918.181 78.5921C918.181 79.7868 918.544 80.6828 919.269 81.2801C919.994 81.8348 921.168 82.2401 922.789 82.4961L927.333 83.1361C931.514 83.7335 934.586 84.8641 936.549 86.5281C938.554 88.1495 939.557 90.5601 939.557 93.7601C939.557 97.1735 938.384 99.8401 936.037 101.76C933.733 103.637 930.32 104.576 925.797 104.576H922.981Z" fill="#FAFAF9"/>
<path d="M886.014 104.64C883.027 104.64 880.425 104.064 878.206 102.912C875.987 101.76 874.259 100.16 873.022 98.1122C871.827 96.0215 871.23 93.5895 871.23 90.8162V81.9842C871.23 79.2108 871.827 76.8002 873.022 74.7522C874.259 72.6615 875.987 71.0402 878.206 69.8882C880.425 68.7362 883.027 68.1602 886.014 68.1602C888.958 68.1602 891.518 68.7362 893.694 69.8882C895.913 71.0402 897.619 72.6615 898.814 74.7522C900.051 76.8002 900.67 79.2108 900.67 81.9842V88.3202H878.974V90.8162C878.974 93.2908 879.571 95.1682 880.766 96.4482C881.961 97.6855 883.731 98.3042 886.078 98.3042C887.87 98.3042 889.321 98.0055 890.43 97.4082C891.539 96.7682 892.243 95.8508 892.542 94.6562H900.414C899.817 97.6855 898.195 100.117 895.55 101.952C892.947 103.744 889.769 104.64 886.014 104.64ZM892.926 83.8402V81.9202C892.926 79.4882 892.35 77.6322 891.198 76.3522C890.046 75.0295 888.318 74.3682 886.014 74.3682C883.71 74.3682 881.961 75.0295 880.766 76.3522C879.571 77.6748 878.974 79.5522 878.974 81.9842V83.3282L893.502 83.2002L892.926 83.8402Z" fill="#FAFAF9"/>
<path d="M847.767 104.64C844.78 104.64 842.156 104.085 839.895 102.976C837.676 101.824 835.948 100.224 834.711 98.1762C833.474 96.0855 832.855 93.6322 832.855 90.8162V81.9842C832.855 79.1255 833.474 76.6722 834.711 74.6242C835.948 72.5762 837.676 70.9975 839.895 69.8882C842.156 68.7362 844.78 68.1602 847.767 68.1602C852.204 68.1602 855.746 69.3122 858.391 71.6162C861.036 73.8775 862.423 76.9708 862.551 80.8962H854.551C854.423 79.0615 853.762 77.6535 852.567 76.6722C851.415 75.6482 849.815 75.1362 847.767 75.1362C845.634 75.1362 843.948 75.7335 842.711 76.9282C841.474 78.0802 840.855 79.7442 840.855 81.9202V90.8162C840.855 92.9922 841.474 94.6775 842.711 95.8722C843.948 97.0668 845.634 97.6642 847.767 97.6642C849.815 97.6642 851.415 97.1735 852.567 96.1922C853.762 95.1682 854.423 93.7388 854.551 91.9042H862.551C862.423 95.8295 861.036 98.9442 858.391 101.248C855.746 103.509 852.204 104.64 847.767 104.64Z" fill="#FAFAF9"/>
<path d="M796.016 104V68.8002H803.568V75.5202H805.552L803.184 79.6162C803.184 75.8188 804.037 72.9602 805.744 71.0402C807.451 69.1202 809.968 68.1602 813.296 68.1602C817.093 68.1602 820.08 69.3335 822.256 71.6802C824.432 74.0268 825.52 77.2695 825.52 81.4082V83.9682H817.136V81.9842C817.136 79.7228 816.539 77.9735 815.344 76.7362C814.192 75.4988 812.592 74.8802 810.544 74.8802C808.453 74.8802 806.832 75.4988 805.68 76.7362C804.571 77.9735 804.016 79.7228 804.016 81.9842V104H796.016Z" fill="#FAFAF9"/>
<path d="M770.825 104.64C766.345 104.64 762.825 103.403 760.265 100.928C757.705 98.4107 756.425 94.9974 756.425 90.688V68.8H764.425V90.6241C764.425 92.8854 764.979 94.6347 766.089 95.8721C767.198 97.0667 768.777 97.6641 770.825 97.6641C772.83 97.6641 774.387 97.0667 775.497 95.8721C776.649 94.6347 777.225 92.8854 777.225 90.6241V68.8H785.225V90.688C785.225 94.9974 783.923 98.4107 781.321 100.928C778.718 103.403 775.219 104.64 770.825 104.64Z" fill="#FAFAF9"/>
<path d="M732.45 104.576C729.463 104.576 726.861 104.021 724.642 102.912C722.466 101.76 720.759 100.16 719.522 98.1121C718.327 96.0215 717.73 93.5681 717.73 90.7521V82.0481C717.73 79.2321 718.327 76.8001 719.522 74.7521C720.759 72.6615 722.466 71.0615 724.642 69.9521C726.861 68.8001 729.463 68.2241 732.45 68.2241C735.479 68.2241 738.082 68.8001 740.258 69.9521C742.434 71.0615 744.119 72.6615 745.314 74.7521C746.551 76.8001 747.17 79.2108 747.17 81.9841V90.7521C747.17 93.5681 746.551 96.0215 745.314 98.1121C744.119 100.16 742.434 101.76 740.258 102.912C738.082 104.021 735.479 104.576 732.45 104.576ZM732.45 97.6001C734.583 97.6001 736.226 97.0241 737.378 95.8721C738.573 94.6775 739.17 92.9708 739.17 90.7521V82.0481C739.17 79.7868 738.573 78.0801 737.378 76.9281C736.226 75.7761 734.583 75.2001 732.45 75.2001C730.359 75.2001 728.717 75.7761 727.522 76.9281C726.327 78.0801 725.73 79.7868 725.73 82.0481V90.7521C725.73 92.9708 726.327 94.6775 727.522 95.8721C728.717 97.0241 730.359 97.6001 732.45 97.6001Z" fill="#FAFAF9"/>
<path d="M692.731 104.576C690.043 104.576 687.696 104.149 685.691 103.296C683.686 102.443 682.107 101.269 680.955 99.7761C679.846 98.2401 679.248 96.4481 679.163 94.4001H687.163C687.248 95.5095 687.782 96.4055 688.763 97.0881C689.787 97.7708 691.11 98.1121 692.731 98.1121H695.547C697.51 98.1121 698.982 97.7281 699.963 96.9601C700.944 96.1921 701.435 95.1468 701.435 93.8241C701.435 92.5868 700.987 91.6268 700.091 90.9441C699.238 90.2188 697.894 89.7495 696.059 89.5361L691.707 88.8961C687.696 88.3415 684.752 87.2748 682.875 85.6961C680.998 84.1175 680.059 81.7495 680.059 78.5921C680.059 75.3068 681.168 72.7681 683.387 70.9761C685.606 69.1415 688.87 68.2241 693.179 68.2241H695.611C699.536 68.2241 702.672 69.0988 705.019 70.8481C707.365 72.5975 708.624 74.9441 708.795 77.8881H700.795C700.667 76.9495 700.134 76.1815 699.195 75.5841C698.299 74.9868 697.104 74.6881 695.611 74.6881H693.179C691.344 74.6881 690 75.0295 689.147 75.7121C688.336 76.3521 687.931 77.3121 687.931 78.5921C687.931 79.7868 688.293 80.6828 689.019 81.2801C689.744 81.8348 690.918 82.2401 692.539 82.4961L697.083 83.1361C701.264 83.7335 704.336 84.8641 706.299 86.5281C708.304 88.1495 709.307 90.5601 709.307 93.7601C709.307 97.1735 708.134 99.8401 705.787 101.76C703.483 103.637 700.07 104.576 695.547 104.576H692.731Z" fill="#FAFAF9"/>
<path d="M655.764 104.64C652.777 104.64 650.175 104.064 647.956 102.912C645.737 101.76 644.009 100.16 642.772 98.1122C641.577 96.0215 640.98 93.5895 640.98 90.8162V81.9842C640.98 79.2108 641.577 76.8002 642.772 74.7522C644.009 72.6615 645.737 71.0402 647.956 69.8882C650.175 68.7362 652.777 68.1602 655.764 68.1602C658.708 68.1602 661.268 68.7362 663.444 69.8882C665.663 71.0402 667.369 72.6615 668.564 74.7522C669.801 76.8002 670.42 79.2108 670.42 81.9842V88.3202H648.724V90.8162C648.724 93.2908 649.321 95.1682 650.516 96.4482C651.711 97.6855 653.481 98.3042 655.828 98.3042C657.62 98.3042 659.071 98.0055 660.18 97.4082C661.289 96.7682 661.993 95.8508 662.292 94.6562H670.164C669.567 97.6855 667.945 100.117 665.3 101.952C662.697 103.744 659.519 104.64 655.764 104.64ZM662.676 83.8402V81.9202C662.676 79.4882 662.1 77.6322 660.948 76.3522C659.796 75.0295 658.068 74.3682 655.764 74.3682C653.46 74.3682 651.711 75.0295 650.516 76.3522C649.321 77.6748 648.724 79.5522 648.724 81.9842V83.3282L663.252 83.2002L662.676 83.8402Z" fill="#FAFAF9"/>
<path d="M602.989 104V57.28H617.773C620.888 57.28 623.576 57.856 625.837 59.008C628.141 60.16 629.933 61.7814 631.213 63.872C632.493 65.92 633.133 68.352 633.133 71.168C633.133 74.24 632.344 76.9494 630.765 79.296C629.229 81.6427 627.138 83.3067 624.493 84.288L633.773 104H624.813L616.685 85.44H610.989V104H602.989ZM610.989 78.4H617.773C620.034 78.4 621.805 77.7814 623.085 76.544C624.365 75.3067 625.005 73.6 625.005 71.424C625.005 69.2054 624.365 67.4774 623.085 66.24C621.805 64.96 620.034 64.32 617.773 64.32H610.989V78.4Z" fill="#FAFAF9"/>
<path d="M535.455 104L523.871 68.8H532.063L538.783 90.176C539.167 91.456 539.53 92.7787 539.871 94.144C540.255 95.5094 540.532 96.5974 540.703 97.4081C540.916 96.5974 541.194 95.5094 541.535 94.144C541.876 92.7787 542.218 91.4774 542.559 90.24L549.151 68.8H557.279L545.759 104H535.455Z" fill="#FAFAF9"/>
<path d="M502.264 104.64C499.277 104.64 496.675 104.064 494.456 102.912C492.237 101.76 490.509 100.16 489.272 98.1122C488.077 96.0215 487.48 93.5895 487.48 90.8162V81.9842C487.48 79.2108 488.077 76.8002 489.272 74.7522C490.509 72.6615 492.237 71.0402 494.456 69.8882C496.675 68.7362 499.277 68.1602 502.264 68.1602C505.208 68.1602 507.768 68.7362 509.944 69.8882C512.163 71.0402 513.869 72.6615 515.064 74.7522C516.301 76.8002 516.92 79.2108 516.92 81.9842V88.3202H495.224V90.8162C495.224 93.2908 495.821 95.1682 497.016 96.4482C498.211 97.6855 499.981 98.3042 502.328 98.3042C504.12 98.3042 505.571 98.0055 506.68 97.4082C507.789 96.7682 508.493 95.8508 508.792 94.6562H516.664C516.067 97.6855 514.445 100.117 511.8 101.952C509.197 103.744 506.019 104.64 502.264 104.64ZM509.176 83.8402V81.9202C509.176 79.4882 508.6 77.6322 507.448 76.3522C506.296 75.0295 504.568 74.3682 502.264 74.3682C499.96 74.3682 498.211 75.0295 497.016 76.3522C495.821 77.6748 495.224 79.5522 495.224 81.9842V83.3282L509.752 83.2002L509.176 83.8402Z" fill="#FAFAF9"/>
<path d="M449.425 104V57.28H463.313C466.47 57.28 469.201 57.8774 471.505 59.072C473.851 60.2667 475.665 61.952 476.945 64.128C478.225 66.304 478.865 68.8854 478.865 71.872V89.344C478.865 92.288 478.225 94.8694 476.945 97.088C475.665 99.264 473.851 100.971 471.505 102.208C469.201 103.403 466.47 104 463.313 104H449.425ZM457.425 96.64H463.313C465.617 96.64 467.451 96 468.817 94.72C470.182 93.3974 470.865 91.6054 470.865 89.344V71.872C470.865 69.6534 470.182 67.904 468.817 66.624C467.451 65.3014 465.617 64.64 463.313 64.64H457.425V96.64Z" fill="#FAFAF9"/>
<path d="M373.891 104V68.8002H381.443V75.5202H383.427L381.059 79.6162C381.059 75.8188 381.912 72.9602 383.619 71.0402C385.326 69.1202 387.843 68.1602 391.171 68.1602C394.968 68.1602 397.955 69.3335 400.131 71.6802C402.307 74.0268 403.395 77.2695 403.395 81.4082V83.9682H395.011V81.9842C395.011 79.7228 394.414 77.9735 393.219 76.7362C392.067 75.4988 390.467 74.8802 388.419 74.8802C386.328 74.8802 384.707 75.4988 383.555 76.7362C382.446 77.9735 381.891 79.7228 381.891 81.9842V104H373.891Z" fill="#FAFAF9"/>
<path d="M348.7 104.576C345.713 104.576 343.111 104.021 340.892 102.912C338.716 101.76 337.009 100.16 335.772 98.1121C334.577 96.0215 333.98 93.5681 333.98 90.7521V82.0481C333.98 79.2321 334.577 76.8001 335.772 74.7521C337.009 72.6615 338.716 71.0615 340.892 69.9521C343.111 68.8001 345.713 68.2241 348.7 68.2241C351.729 68.2241 354.332 68.8001 356.508 69.9521C358.684 71.0615 360.369 72.6615 361.564 74.7521C362.801 76.8001 363.42 79.2108 363.42 81.9841V90.7521C363.42 93.5681 362.801 96.0215 361.564 98.1121C360.369 100.16 358.684 101.76 356.508 102.912C354.332 104.021 351.729 104.576 348.7 104.576ZM348.7 97.6001C350.833 97.6001 352.476 97.0241 353.628 95.8721C354.823 94.6775 355.42 92.9708 355.42 90.7521V82.0481C355.42 79.7868 354.823 78.0801 353.628 76.9281C352.476 75.7761 350.833 75.2001 348.7 75.2001C346.609 75.2001 344.967 75.7761 343.772 76.9281C342.577 78.0801 341.98 79.7868 341.98 82.0481V90.7521C341.98 92.9708 342.577 94.6775 343.772 95.8721C344.967 97.0241 346.609 97.6001 348.7 97.6001Z" fill="#FAFAF9"/>
<path d="M295.989 104V96.704H308.277V76.032H297.589V68.8H315.957V96.704H326.837V104H295.989ZM311.477 62.912C309.856 62.912 308.576 62.5067 307.637 61.696C306.698 60.8427 306.229 59.712 306.229 58.304C306.229 56.896 306.698 55.7867 307.637 54.976C308.576 54.1227 309.856 53.696 311.477 53.696C313.098 53.696 314.378 54.1227 315.317 54.976C316.256 55.7867 316.725 56.896 316.725 58.304C316.725 59.712 316.256 60.8427 315.317 61.696C314.378 62.5067 313.098 62.912 311.477 62.912Z" fill="#FAFAF9"/>
<path d="M257.678 104V68.8002H265.486V75.5202H267.662L265.486 77.3762C265.486 74.4748 266.318 72.2135 267.982 70.5922C269.689 68.9708 272.014 68.1602 274.958 68.1602C278.414 68.1602 281.166 69.3122 283.214 71.6162C285.305 73.9202 286.35 77.0135 286.35 80.8962V104H278.35V81.7282C278.35 79.5948 277.795 77.9522 276.686 76.8002C275.577 75.6482 274.019 75.0722 272.014 75.0722C270.051 75.0722 268.494 75.6695 267.342 76.8642C266.233 78.0588 265.678 79.7655 265.678 81.9842V104H257.678Z" fill="#FAFAF9"/>
<path d="M233.575 104.64C229.095 104.64 225.575 103.403 223.015 100.928C220.455 98.4107 219.175 94.9974 219.175 90.688V68.8H227.175V90.6241C227.175 92.8854 227.729 94.6347 228.839 95.8721C229.948 97.0667 231.527 97.6641 233.575 97.6641C235.58 97.6641 237.137 97.0667 238.247 95.8721C239.399 94.6347 239.975 92.8854 239.975 90.6241V68.8H247.975V90.688C247.975 94.9974 246.673 98.4107 244.071 100.928C241.468 103.403 237.969 104.64 233.575 104.64Z" fill="#FAFAF9"/>
<path d="M193.28 104.704C188.544 104.704 184.789 103.403 182.016 100.8C179.285 98.1547 177.92 94.6134 177.92 90.176H185.92C185.92 92.5227 186.581 94.3574 187.904 95.68C189.227 97.0027 191.019 97.664 193.28 97.664C195.541 97.664 197.333 97.024 198.656 95.744C199.979 94.4214 200.64 92.5867 200.64 90.24V64.704H189.76V57.28H208.64V90.24C208.64 94.72 207.253 98.2614 204.48 100.864C201.749 103.424 198.016 104.704 193.28 104.704Z" fill="#FAFAF9"/>
<path fill-rule="evenodd" clip-rule="evenodd" d="M36.7083 45.0101V92.4696C36.7082 96.2595 36.7082 99.3876 36.9163 101.936C37.1326 104.582 37.5966 107.015 38.761 109.3C40.5666 112.844 43.4477 115.725 46.9914 117.531C49.2766 118.695 51.7094 119.159 54.3559 119.375C56.904 119.583 60.0321 119.583 63.8222 119.583H113.178C116.968 119.583 120.096 119.583 122.644 119.375C125.29 119.159 127.723 118.695 130.008 117.531C133.552 115.725 136.433 112.844 138.239 109.3C139.403 107.015 139.867 104.582 140.084 101.936C140.292 99.3876 140.292 96.2596 140.292 92.4696V71.3638C140.292 67.5738 140.292 64.4458 140.084 61.8977C139.867 59.2511 139.403 56.8183 138.239 54.5332C136.433 50.9895 133.552 48.1083 130.008 46.3027C127.723 45.1384 125.29 44.6743 122.644 44.4581C120.096 44.2499 116.968 44.25 113.178 44.25H96.1182L91.9058 35.8239C90.6593 33.3227 89.5631 31.123 87.8553 29.4504C86.3595 27.9854 84.5568 26.8712 82.5775 26.1885C80.3178 25.4091 77.8601 25.4123 75.0654 25.416L56.3018 25.4165C53.8198 25.4165 51.6786 25.4164 49.915 25.5605C48.0536 25.7126 46.2022 26.0483 44.4207 26.9561C41.7629 28.3103 39.602 30.4711 38.2478 33.1289C37.3401 34.9105 37.0043 36.7619 36.8522 38.6233C36.7081 40.3868 36.7082 42.5282 36.7083 45.0101ZM82.4126 73.4751C84.2513 71.6364 84.2513 68.6553 82.4126 66.8166C80.5738 64.9778 77.5927 64.9778 75.754 66.8166L63.9831 78.5874C62.1444 80.4261 62.1444 83.4073 63.9831 85.246L75.754 97.0168C77.5927 98.8555 80.5738 98.8555 82.4126 97.0168C84.2513 95.1781 84.2513 92.1969 82.4126 90.3582L73.971 81.9167L82.4126 73.4751ZM101.246 66.8166C99.4072 64.9778 96.426 64.9778 94.5873 66.8166C92.7486 68.6553 92.7486 71.6364 94.5873 73.4751L103.029 81.9167L94.5873 90.3582C92.7486 92.1969 92.7486 95.1781 94.5873 97.0168C96.426 98.8555 99.4072 98.8555 101.246 97.0168L113.017 85.246C114.855 83.4073 114.855 80.4261 113.017 78.5874L101.246 66.8166Z" fill="#D0B099"/>
<path d="M45.9999 57H113V108H45.9999V57Z" fill="#F6E6D7"/>
<path fill-rule="evenodd" clip-rule="evenodd" d="M28.7083 53.0101V100.47C28.7082 104.26 28.7082 107.388 28.9163 109.936C29.1326 112.582 29.5966 115.015 30.761 117.3C32.5666 120.844 35.4477 123.725 38.9914 125.531C41.2766 126.695 43.7094 127.159 46.3559 127.375C48.904 127.583 52.0321 127.583 55.8222 127.583H105.178C108.968 127.583 112.096 127.583 114.644 127.375C117.29 127.159 119.723 126.695 122.008 125.531C125.552 123.725 128.433 120.844 130.239 117.3C131.403 115.015 131.867 112.582 132.084 109.936C132.292 107.388 132.292 104.26 132.292 100.47V79.3638C132.292 75.5738 132.292 72.4458 132.084 69.8977C131.867 67.2511 131.403 64.8183 130.239 62.5332C128.433 58.9895 125.552 56.1083 122.008 54.3027C119.723 53.1384 117.29 52.6743 114.644 52.4581C112.096 52.2499 108.968 52.25 105.178 52.25H88.1183L83.9058 43.8239C82.6593 41.3227 81.5631 39.123 79.8553 37.4504C78.3595 35.9854 76.5568 34.8712 74.5775 34.1885C72.3178 33.4091 69.8601 33.4123 67.0654 33.416L48.3018 33.4165C45.8198 33.4165 43.6786 33.4164 41.915 33.5605C40.0536 33.7126 38.2022 34.0483 36.4207 34.9561C33.7629 36.3103 31.602 38.4711 30.2478 41.1289C29.3401 42.9105 29.0043 44.7619 28.8522 46.6233C28.7081 48.3868 28.7082 50.5282 28.7083 53.0101ZM74.4126 81.4751C76.2513 79.6364 76.2513 76.6553 74.4126 74.8166C72.5738 72.9778 69.5927 72.9778 67.754 74.8166L55.9831 86.5874C54.1444 88.4261 54.1444 91.4073 55.9831 93.246L67.754 105.017C69.5927 106.856 72.5738 106.856 74.4126 105.017C76.2513 103.178 76.2513 100.197 74.4126 98.3582L65.971 89.9167L74.4126 81.4751ZM93.2459 74.8166C91.4072 72.9778 88.426 72.9778 86.5873 74.8166C84.7486 76.6553 84.7486 79.6364 86.5873 81.4751L95.0288 89.9167L86.5873 98.3582C84.7486 100.197 84.7486 103.178 86.5873 105.017C88.426 106.856 91.4072 106.856 93.2459 105.017L105.017 93.246C106.855 91.4073 106.855 88.4261 105.017 86.5874L93.2459 74.8166Z" fill="#E77C31"/>
</svg>
